<svg width="70" height="21" fill="none" xmlns="http://www.w3.org/2000/svg"><path d="M5.721 14.699c-1.523 0-2.706-.327-3.547-.98-.827-.653-1.255-1.545-1.284-2.677h1.958c.03.45.254.878.675 1.284.435.392 1.168.588 2.198.588.929 0 1.64-.181 2.133-.544.493-.377.74-.834.74-1.371 0-.48-.181-.85-.544-1.11-.363-.276-.95-.457-1.763-.544l-1.262-.13c-1.103-.117-2.003-.443-2.699-.98-.696-.552-1.045-1.32-1.045-2.307 0-.74.189-1.371.566-1.894.377-.537.9-.943 1.567-1.219.668-.29 1.437-.435 2.307-.435 1.306 0 2.365.29 3.178.87.812.581 1.233 1.444 1.262 2.59H8.202c-.014-.464-.232-.855-.653-1.175-.406-.333-1.015-.5-1.828-.5-.812 0-1.429.167-1.85.5-.42.334-.63.755-.63 1.263 0 .435.144.783.434 1.044.305.262.798.428 1.48.5l1.263.132c1.248.13 2.249.478 3.003 1.044.755.552 1.132 1.335 1.132 2.35 0 .726-.21 1.372-.631 1.938-.407.551-.972.986-1.698 1.306-.725.304-1.56.457-2.503.457zm11.212.043c-1.002 0-1.872-.174-2.612-.522a5.246 5.246 0 01-1.806-1.393 6.502 6.502 0 01-1.089-1.959 6.838 6.838 0 01-.348-2.133v-.391c0-.74.116-1.466.348-2.177a5.97 5.97 0 011.089-1.915 5.472 5.472 0 011.828-1.393c.725-.348 1.574-.522 2.546-.522.972 0 1.843.181 2.612.544a4.568 4.568 0 011.872 1.545c.478.653.747 1.43.805 2.329h-2.003a2.803 2.803 0 00-1-1.807c-.567-.493-1.328-.74-2.286-.74-.827 0-1.516.189-2.067.566A3.45 3.45 0 0013.58 6.32c-.276.653-.413 1.393-.413 2.22 0 .798.137 1.531.413 2.199.276.652.69 1.175 1.24 1.567.566.377 1.27.565 2.112.565.653 0 1.218-.116 1.697-.348a3.073 3.073 0 001.154-.936c.29-.391.464-.834.522-1.327h2.002c-.043.914-.311 1.705-.805 2.372-.479.668-1.117 1.19-1.915 1.567-.784.363-1.669.544-2.655.544zm11.936 0c-1.016 0-1.908-.174-2.677-.522a6.176 6.176 0 01-1.959-1.371 6.26 6.26 0 01-1.197-1.937 6.266 6.266 0 01-.391-2.177v-.391c0-.74.137-1.466.413-2.177a5.761 5.761 0 011.219-1.937 5.746 5.746 0 011.959-1.371c.769-.348 1.646-.522 2.633-.522.987 0 1.865.174 2.634.522a5.73 5.73 0 011.958 1.371 5.761 5.761 0 011.22 1.937 5.99 5.99 0 01.413 2.177v.391a5.97 5.97 0 01-.414 2.177 5.757 5.757 0 01-1.197 1.937 5.92 5.92 0 01-1.937 1.37c-.769.349-1.661.523-2.677.523zm0-1.872c.87 0 1.61-.188 2.22-.565a3.779 3.779 0 001.415-1.567c.333-.653.5-1.386.5-2.199 0-.827-.167-1.567-.5-2.22a3.782 3.782 0 00-1.437-1.545c-.61-.377-1.342-.566-2.198-.566-.841 0-1.574.189-2.198.566a3.782 3.782 0 00-1.436 1.545c-.334.653-.501 1.393-.501 2.22 0 .813.16 1.546.479 2.199a3.985 3.985 0 001.414 1.567c.624.377 1.372.565 2.242.565zm13.076 1.872c-1.016 0-1.908-.174-2.677-.522a6.176 6.176 0 01-1.96-1.371 6.26 6.26 0 01-1.196-1.937 6.266 6.266 0 01-.392-2.177v-.391c0-.74.138-1.466.414-2.177a5.761 5.761 0 011.218-1.937 5.747 5.747 0 011.96-1.371c.768-.348 1.646-.522 2.633-.522.986 0 1.864.174 2.633.522.769.334 1.422.79 1.959 1.371a5.761 5.761 0 011.219 1.937 5.99 5.99 0 01.413 2.177v.391a5.99 5.99 0 01-.413 2.177 5.759 5.759 0 01-1.197 1.937 5.922 5.922 0 01-1.937 1.37c-.77.349-1.662.523-2.677.523zm0-1.872c.87 0 1.61-.188 2.22-.565a3.779 3.779 0 001.414-1.567c.334-.653.5-1.386.5-2.199 0-.827-.166-1.567-.5-2.22a3.782 3.782 0 00-1.436-1.545c-.61-.377-1.342-.566-2.198-.566-.842 0-1.575.189-2.199.566A3.782 3.782 0 0038.31 6.32c-.334.653-.5 1.393-.5 2.22 0 .813.159 1.546.478 2.199a3.985 3.985 0 001.415 1.567c.624.377 1.371.565 2.242.565zm7.721 5.833V2.728h1.654v5.028l-.392-.044c.073-1.247.334-2.263.784-3.047.464-.798 1.066-1.385 1.806-1.763a5.242 5.242 0 012.416-.565c.842 0 1.603.16 2.285.478a5.37 5.37 0 011.785 1.306c.493.552.87 1.19 1.132 1.916a6.76 6.76 0 01.392 2.307v.391a6.44 6.44 0 01-.414 2.307 5.88 5.88 0 01-1.175 1.915 5.36 5.36 0 01-1.785 1.306c-.682.32-1.436.48-2.263.48a5.41 5.41 0 01-2.373-.545c-.754-.363-1.378-.95-1.871-1.763-.494-.812-.777-1.879-.85-3.2l.958 1.742v7.726h-2.089zm5.898-5.789c.784 0 1.466-.181 2.046-.544a3.782 3.782 0 001.35-1.545c.319-.668.478-1.43.478-2.286 0-.87-.16-1.632-.479-2.285a3.63 3.63 0 00-1.349-1.523c-.58-.378-1.262-.566-2.046-.566-.696 0-1.342.16-1.937.479a3.565 3.565 0 00-1.436 1.349c-.349.58-.523 1.284-.523 2.111v1.001c0 .798.182 1.48.544 2.046a3.66 3.66 0 001.437 1.306 4.142 4.142 0 001.915.457z" fill="#070320"/><path fill-rule="evenodd" clip-rule="evenodd" d="M59.696 14.428c1.867-.713 3.242-3.155 3.242-6.057 0-2.902-1.375-5.344-3.242-6.057 2.647.143 4.756 2.8 4.756 6.057 0 3.257-2.11 5.915-4.756 6.057z" fill="#070320"/><path fill-rule="evenodd" clip-rule="evenodd" d="M64.143 12.991c.88-1.021 1.457-2.71 1.457-4.62 0-1.91-.576-3.598-1.457-4.62 1.616.614 2.79 2.45 2.79 4.62s-1.174 4.006-2.79 4.62z" fill="#070320"/><path fill-rule="evenodd" clip-rule="evenodd" d="M66.59 11.678c.63-.722 1.044-1.934 1.044-3.307s-.413-2.585-1.043-3.307c1.186.406 2.056 1.733 2.056 3.307 0 1.574-.87 2.901-2.056 3.307z" fill="#070320"/></svg>