<svg width="105" height="19" fill="none" xmlns="http://www.w3.org/2000/svg"><path d="M7.58 15.264c-2.332 0-4.1-.403-5.302-1.21C1.09 13.233.496 12.037.496 10.468v-.22h2.2v.22c0 1.877 1.665 2.816 4.994 2.816 1.481 0 2.61-.183 3.388-.55.777-.367 1.166-.91 1.166-1.628v-.176c0-.616-.25-1.078-.748-1.386-.484-.308-1.35-.543-2.596-.704L5.622 8.4c-1.599-.205-2.801-.616-3.608-1.232-.792-.63-1.188-1.474-1.188-2.53v-.22c0-1.29.572-2.295 1.716-3.014 1.144-.733 2.757-1.1 4.84-1.1 2.215 0 3.894.396 5.038 1.188 1.159.792 1.738 1.943 1.738 3.454v.22H11.98v-.22c0-1.775-1.533-2.662-4.598-2.662-1.408 0-2.486.183-3.234.55-.733.352-1.1.865-1.1 1.54v.176c0 .543.235.96.704 1.254.47.293 1.254.513 2.354.66l3.3.418c1.745.22 3.021.645 3.828 1.276.821.63 1.232 1.525 1.232 2.684v.22c0 1.335-.594 2.369-1.782 3.102-1.188.733-2.89 1.1-5.104 1.1zm15.917 0c-1.306 0-2.45-.22-3.432-.66-.983-.455-1.738-1.093-2.266-1.914-.528-.836-.792-1.804-.792-2.904V9.39c0-1.13.264-2.112.792-2.948.528-.836 1.276-1.474 2.244-1.914.982-.455 2.134-.682 3.454-.682 1.188 0 2.258.205 3.212.616.953.396 1.694.953 2.222 1.672.542.704.814 1.503.814 2.398v.088h-2.178v-.088c0-.528-.176-.997-.528-1.408-.338-.425-.822-.755-1.452-.99-.616-.235-1.313-.352-2.09-.352-1.35 0-2.406.323-3.168.968-.763.63-1.144 1.518-1.144 2.662v.352c0 1.115.381 1.987 1.144 2.618.762.63 1.818.946 3.168.946.792 0 1.496-.117 2.112-.352.616-.235 1.092-.557 1.43-.968.352-.41.528-.88.528-1.408v-.088h2.178v.088c0 .91-.264 1.716-.792 2.42s-1.269 1.254-2.222 1.65c-.939.396-2.017.594-3.234.594zm14.782 0c-1.335 0-2.493-.22-3.476-.66-.983-.455-1.738-1.093-2.266-1.914-.528-.836-.792-1.811-.792-2.926V9.39c0-1.13.264-2.112.792-2.948.528-.836 1.283-1.474 2.266-1.914.983-.455 2.141-.682 3.476-.682 1.32 0 2.464.227 3.432.682.983.44 1.73 1.078 2.244 1.914.528.836.792 1.819.792 2.948v.374c0 1.115-.264 2.09-.792 2.926-.513.821-1.261 1.46-2.244 1.914-.968.44-2.112.66-3.432.66zm-.022-1.936c1.35 0 2.405-.315 3.168-.946.763-.63 1.144-1.503 1.144-2.618V9.39c0-1.13-.381-2.01-1.144-2.64-.763-.645-1.819-.968-3.168-.968-1.379 0-2.45.315-3.212.946-.748.63-1.122 1.518-1.122 2.662v.374c0 1.115.381 1.987 1.144 2.618.777.63 1.84.946 3.19.946zm15.083 1.936c-1.335 0-2.494-.22-3.477-.66-.982-.455-1.737-1.093-2.266-1.914-.528-.836-.791-1.811-.791-2.926V9.39c0-1.13.264-2.112.791-2.948.529-.836 1.284-1.474 2.267-1.914.982-.455 2.14-.682 3.476-.682 1.32 0 2.463.227 3.431.682.983.44 1.731 1.078 2.245 1.914.528.836.791 1.819.791 2.948v.374c0 1.115-.264 2.09-.791 2.926-.514.821-1.262 1.46-2.244 1.914-.968.44-2.112.66-3.432.66zm-.023-1.936c1.35 0 2.406-.315 3.169-.946.762-.63 1.144-1.503 1.144-2.618V9.39c0-1.13-.382-2.01-1.145-2.64-.762-.645-1.818-.968-3.167-.968-1.38 0-2.45.315-3.212.946-.748.63-1.123 1.518-1.123 2.662v.374c0 1.115.382 1.987 1.145 2.618.777.63 1.84.946 3.19.946zm15.611-9.482c1.305 0 2.45.227 3.432.682.983.455 1.738 1.1 2.266 1.936.528.821.792 1.79.792 2.904v.352c0 1.115-.264 2.09-.792 2.926-.528.836-1.283 1.481-2.266 1.936-.983.455-2.127.682-3.432.682a6.74 6.74 0 01-2.266-.374 5.525 5.525 0 01-1.848-1.078v4.928h-2.112V4.11h1.958l.088 1.254a5.833 5.833 0 011.892-1.122 6.583 6.583 0 012.288-.396zm4.312 5.522c0-1.115-.389-1.987-1.166-2.618-.763-.645-1.819-.968-3.168-.968a6.13 6.13 0 00-2.398.462c-.719.308-1.283.726-1.694 1.254v4.092c.41.528.975.953 1.694 1.276a6.13 6.13 0 002.398.462c1.35 0 2.405-.323 3.168-.968.777-.645 1.166-1.525 1.166-2.64v-.352zm6.24 5.896c-.395 0-.718-.125-.967-.374-.25-.25-.374-.565-.374-.946s.124-.697.374-.946c.249-.25.572-.374.968-.374s.718.125.968.374c.249.25.374.565.374.946s-.125.697-.374.946c-.25.25-.572.374-.968.374zm20.174-.594V15H97.41l-1.716-3.652h-8.14L85.838 15h-2.244v-.33L90.414.568h2.42l6.82 14.102zm-4.906-5.302l-3.124-6.622L88.5 9.368h6.248zm9.714-8.8V15h-2.178V.568h2.178z" fill="#070320"/></svg>