<svg width="70" height="21" viewBox="0 0 70 21" fill="none" xmlns="http://www.w3.org/2000/svg">
<path d="M5.72125 14.6986C4.19777 14.6986 3.01525 14.3722 2.1737 13.7192C1.34666 13.0663 0.918637 12.174 0.889618 11.0423H2.84839C2.87741 11.492 3.1023 11.9201 3.52308 12.3263C3.95836 12.7181 4.69109 12.914 5.72125 12.914C6.64986 12.914 7.36082 12.7326 7.85414 12.3699C8.34746 11.9926 8.59412 11.5356 8.59412 10.9987C8.59412 10.5199 8.41275 10.1499 8.05002 9.88876C7.68728 9.61308 7.09965 9.43171 6.28712 9.34465L5.0248 9.21407C3.92209 9.09799 3.0225 8.77153 2.32605 8.23468C1.6296 7.68333 1.28137 6.91433 1.28137 5.92769C1.28137 5.18771 1.46999 4.55655 1.84724 4.03421C2.22448 3.49736 2.74682 3.0911 3.41426 2.81542C4.08169 2.52523 4.85069 2.38013 5.72125 2.38013C7.0271 2.38013 8.08629 2.67032 8.89882 3.2507C9.71134 3.83108 10.1321 4.69439 10.1611 5.84063H8.20236C8.18785 5.37633 7.97021 4.98457 7.54944 4.66537C7.14318 4.33165 6.53378 4.16479 5.72125 4.16479C4.90873 4.16479 4.29208 4.33165 3.8713 4.66537C3.45053 4.99908 3.24014 5.41986 3.24014 5.92769C3.24014 6.36297 3.38524 6.71119 3.67543 6.97236C3.98012 7.23353 4.47344 7.40039 5.15539 7.47294L6.41771 7.60352C7.66552 7.73411 8.66667 8.08233 9.42115 8.6482C10.1756 9.19956 10.5529 9.98307 10.5529 10.9987C10.5529 11.7242 10.3425 12.3699 9.92173 12.9357C9.51547 13.4871 8.9496 13.9224 8.22413 14.2416C7.49866 14.5463 6.66437 14.6986 5.72125 14.6986ZM16.9327 14.7422C15.9315 14.7422 15.061 14.568 14.321 14.2198C13.5955 13.8716 12.9934 13.4073 12.5146 12.8269C12.0357 12.232 11.673 11.5791 11.4263 10.8681C11.1942 10.1572 11.0781 9.44622 11.0781 8.73526V8.3435C11.0781 7.60352 11.1942 6.87805 11.4263 6.16709C11.673 5.45613 12.0357 4.81772 12.5146 4.25185C13.0079 3.67147 13.6173 3.20717 14.3427 2.85895C15.0682 2.51072 15.917 2.33661 16.8891 2.33661C17.8613 2.33661 18.7318 2.51797 19.5008 2.88071C20.2843 3.24344 20.9082 3.75853 21.3726 4.42596C21.8514 5.07889 22.1198 5.85514 22.1778 6.75472H20.1755C20.074 6.02925 19.7402 5.42711 19.1744 4.9483C18.6085 4.45498 17.8468 4.20832 16.8891 4.20832C16.0621 4.20832 15.3729 4.39694 14.8215 4.77419C14.2702 5.15143 13.8567 5.66652 13.581 6.31944C13.3053 6.97236 13.1675 7.71234 13.1675 8.53938C13.1675 9.3374 13.3053 10.0701 13.581 10.7376C13.8567 11.3905 14.2702 11.9128 14.8215 12.3046C15.3874 12.6818 16.0911 12.8704 16.9327 12.8704C17.5856 12.8704 18.1515 12.7544 18.6303 12.5222C19.1091 12.2901 19.4936 11.9781 19.7838 11.5864C20.074 11.1946 20.2481 10.7521 20.3061 10.2587H22.3084C22.2649 11.1728 21.9965 11.9636 21.5031 12.631C21.0243 13.2985 20.3859 13.8208 19.5879 14.1981C18.8044 14.5608 17.9193 14.7422 16.9327 14.7422ZM28.8691 14.7422C27.8534 14.7422 26.9611 14.568 26.1921 14.2198C25.4231 13.8716 24.7702 13.4145 24.2333 12.8487C23.711 12.2683 23.312 11.6226 23.0363 10.9117C22.7751 10.2007 22.6446 9.47524 22.6446 8.73526V8.3435C22.6446 7.60352 22.7824 6.87805 23.0581 6.16709C23.3338 5.44162 23.74 4.79595 24.2769 4.23008C24.8137 3.64971 25.4666 3.19266 26.2356 2.85895C27.0046 2.51072 27.8825 2.33661 28.8691 2.33661C29.8557 2.33661 30.7336 2.51072 31.5026 2.85895C32.2716 3.19266 32.9245 3.64971 33.4613 4.23008C33.9982 4.79595 34.4044 5.44162 34.6801 6.16709C34.9558 6.87805 35.0936 7.60352 35.0936 8.3435V8.73526C35.0936 9.47524 34.9558 10.2007 34.6801 10.9117C34.419 11.6226 34.0199 12.2683 33.4831 12.8487C32.9608 13.4145 32.3151 13.8716 31.5461 14.2198C30.7771 14.568 29.8848 14.7422 28.8691 14.7422ZM28.8691 12.8704C29.7397 12.8704 30.4796 12.6818 31.089 12.3046C31.7129 11.9128 32.1845 11.3905 32.5037 10.7376C32.8374 10.0846 33.0043 9.35191 33.0043 8.53938C33.0043 7.71234 32.8374 6.97236 32.5037 6.31944C32.17 5.66652 31.6912 5.15143 31.0673 4.77419C30.4579 4.39694 29.7252 4.20832 28.8691 4.20832C28.0276 4.20832 27.2948 4.39694 26.6709 4.77419C26.047 5.15143 25.5682 5.66652 25.2345 6.31944C24.9008 6.97236 24.7339 7.71234 24.7339 8.53938C24.7339 9.35191 24.8935 10.0846 25.2127 10.7376C25.5464 11.3905 26.018 11.9128 26.6274 12.3046C27.2513 12.6818 27.9985 12.8704 28.8691 12.8704ZM41.9446 14.7422C40.9289 14.7422 40.0366 14.568 39.2676 14.2198C38.4986 13.8716 37.8457 13.4145 37.3088 12.8487C36.7865 12.2683 36.3875 11.6226 36.1118 10.9117C35.8506 10.2007 35.72 9.47524 35.72 8.73526V8.3435C35.72 7.60352 35.8579 6.87805 36.1336 6.16709C36.4092 5.44162 36.8155 4.79595 37.3523 4.23008C37.8892 3.64971 38.5421 3.19266 39.3111 2.85895C40.0801 2.51072 40.9579 2.33661 41.9446 2.33661C42.9312 2.33661 43.809 2.51072 44.578 2.85895C45.347 3.19266 46 3.64971 46.5368 4.23008C47.0737 4.79595 47.4799 5.44162 47.7556 6.16709C48.0313 6.87805 48.1691 7.60352 48.1691 8.3435V8.73526C48.1691 9.47524 48.0313 10.2007 47.7556 10.9117C47.4944 11.6226 47.0954 12.2683 46.5586 12.8487C46.0362 13.4145 45.3906 13.8716 44.6216 14.2198C43.8526 14.568 42.9602 14.7422 41.9446 14.7422ZM41.9446 12.8704C42.8151 12.8704 43.5551 12.6818 44.1645 12.3046C44.7884 11.9128 45.26 11.3905 45.5792 10.7376C45.9129 10.0846 46.0798 9.35191 46.0798 8.53938C46.0798 7.71234 45.9129 6.97236 45.5792 6.31944C45.2455 5.66652 44.7667 5.15143 44.1428 4.77419C43.5334 4.39694 42.8006 4.20832 41.9446 4.20832C41.103 4.20832 40.3703 4.39694 39.7464 4.77419C39.1225 5.15143 38.6437 5.66652 38.31 6.31944C37.9763 6.97236 37.8094 7.71234 37.8094 8.53938C37.8094 9.35191 37.969 10.0846 38.2882 10.7376C38.6219 11.3905 39.0935 11.9128 39.7029 12.3046C40.3268 12.6818 41.074 12.8704 41.9446 12.8704ZM49.6661 18.7032V2.72836H51.3202V7.75587L50.9284 7.71234C51.0009 6.46453 51.2621 5.44888 51.7119 4.66537C52.1762 3.86735 52.7783 3.27972 53.5183 2.90247C54.2583 2.52523 55.0636 2.33661 55.9341 2.33661C56.7757 2.33661 57.5374 2.49621 58.2194 2.81542C58.9158 3.13462 59.5107 3.56991 60.004 4.12126C60.4974 4.67262 60.8746 5.31104 61.1358 6.03651C61.3969 6.76198 61.5275 7.53098 61.5275 8.3435V8.73526C61.5275 9.54779 61.3897 10.3168 61.114 11.0423C60.8383 11.7677 60.4466 12.4061 59.9387 12.9575C59.4454 13.5089 58.8505 13.9441 58.1541 14.2633C57.4721 14.5826 56.7177 14.7422 55.8906 14.7422C55.0636 14.7422 54.2728 14.5608 53.5183 14.1981C52.7638 13.8353 52.1399 13.2477 51.6466 12.4352C51.1533 11.6226 50.8704 10.5562 50.7978 9.23583L51.7554 10.977V18.7032H49.6661ZM55.5642 12.914C56.3477 12.914 57.0296 12.7326 57.61 12.3699C58.1904 11.9926 58.6402 11.4775 58.9594 10.8246C59.2786 10.1572 59.4382 9.39544 59.4382 8.53938C59.4382 7.66882 59.2786 6.90707 58.9594 6.25415C58.6402 5.60122 58.1904 5.09339 57.61 4.73066C57.0296 4.35341 56.3477 4.16479 55.5642 4.16479C54.8677 4.16479 54.222 4.3244 53.6272 4.6436C53.0323 4.9483 52.5535 5.39809 52.1907 5.99298C51.8425 6.57336 51.6684 7.27706 51.6684 8.1041V9.10525C51.6684 9.90327 51.8497 10.5852 52.2125 11.1511C52.5752 11.7169 53.054 12.1522 53.6489 12.4569C54.2438 12.7616 54.8822 12.914 55.5642 12.914Z" fill="#070320"/>
<path fill-rule="evenodd" clip-rule="evenodd" d="M59.6962 14.4284C61.5629 13.7151 62.9381 11.2735 62.9381 8.37123C62.9381 5.4689 61.5629 3.0273 59.6961 2.31406C62.3425 2.45682 64.452 5.11409 64.452 8.37121C64.452 11.6283 62.3426 14.2855 59.6962 14.4284Z" fill="#070320"/>
<path fill-rule="evenodd" clip-rule="evenodd" d="M64.1431 12.9911C65.0239 11.9697 65.5995 10.2812 65.5995 8.37115C65.5995 6.46113 65.024 4.77269 64.1432 3.75125C65.7594 4.36507 66.9325 6.20133 66.9325 8.37118C66.9325 10.5411 65.7593 12.3774 64.1431 12.9911Z" fill="#070320"/>
<path fill-rule="evenodd" clip-rule="evenodd" d="M66.5909 11.6783C67.2209 10.9562 67.6342 9.74438 67.6342 8.37123C67.6342 6.99807 67.2209 5.78623 66.5909 5.06418C67.7773 5.47017 68.6471 6.79703 68.6471 8.37123C68.6471 9.94542 67.7773 11.2723 66.5909 11.6783Z" fill="#070320"/>
</svg>
