<svg width="105" height="19" viewBox="0 0 105 19" fill="none" xmlns="http://www.w3.org/2000/svg">
<path d="M7.58 15.264C5.248 15.264 3.48067 14.8607 2.278 14.054C1.09 13.2327 0.496 12.0373 0.496 10.468V10.248H2.696V10.468C2.696 12.3453 4.36067 13.284 7.69 13.284C9.17133 13.284 10.3007 13.1007 11.078 12.734C11.8553 12.3673 12.244 11.8247 12.244 11.106V10.93C12.244 10.314 11.9947 9.852 11.496 9.544C11.012 9.236 10.1467 9.00133 8.9 8.84L5.622 8.4C4.02333 8.19467 2.82067 7.784 2.014 7.168C1.222 6.53733 0.826 5.694 0.826 4.638V4.418C0.826 3.12733 1.398 2.12267 2.542 1.404C3.686 0.670666 5.29933 0.303999 7.382 0.303999C9.59667 0.303999 11.276 0.699999 12.42 1.492C13.5787 2.284 14.158 3.43533 14.158 4.946V5.166H11.98V4.946C11.98 3.17133 10.4473 2.284 7.382 2.284C5.974 2.284 4.896 2.46733 4.148 2.834C3.41467 3.186 3.048 3.69933 3.048 4.374V4.55C3.048 5.09267 3.28267 5.51067 3.752 5.804C4.22133 6.09733 5.006 6.31733 6.106 6.464L9.406 6.882C11.1513 7.102 12.4273 7.52733 13.234 8.158C14.0553 8.78867 14.466 9.68333 14.466 10.842V11.062C14.466 12.3967 13.872 13.4307 12.684 14.164C11.496 14.8973 9.79467 15.264 7.58 15.264ZM23.4967 15.264C22.1913 15.264 21.0473 15.044 20.0647 14.604C19.082 14.1493 18.3267 13.5113 17.7987 12.69C17.2707 11.854 17.0067 10.886 17.0067 9.786V9.39C17.0067 8.26067 17.2707 7.278 17.7987 6.442C18.3267 5.606 19.0747 4.968 20.0427 4.528C21.0253 4.07333 22.1767 3.846 23.4967 3.846C24.6847 3.846 25.7553 4.05133 26.7087 4.462C27.662 4.858 28.4027 5.41533 28.9307 6.134C29.4733 6.838 29.7447 7.63733 29.7447 8.532V8.62H27.5667V8.532C27.5667 8.004 27.3907 7.53467 27.0387 7.124C26.7013 6.69867 26.2173 6.36867 25.5867 6.134C24.9707 5.89933 24.274 5.782 23.4967 5.782C22.1473 5.782 21.0913 6.10467 20.3287 6.75C19.566 7.38067 19.1847 8.268 19.1847 9.412V9.764C19.1847 10.8787 19.566 11.7513 20.3287 12.382C21.0913 13.0127 22.1473 13.328 23.4967 13.328C24.2887 13.328 24.9927 13.2107 25.6087 12.976C26.2247 12.7413 26.7013 12.4187 27.0387 12.008C27.3907 11.5973 27.5667 11.128 27.5667 10.6V10.512H29.7447V10.6C29.7447 11.5093 29.4807 12.316 28.9527 13.02C28.4247 13.724 27.684 14.274 26.7307 14.67C25.792 15.066 24.714 15.264 23.4967 15.264ZM38.2789 15.264C36.9443 15.264 35.7856 15.044 34.8029 14.604C33.8203 14.1493 33.0649 13.5113 32.5369 12.69C32.0089 11.854 31.7449 10.8787 31.7449 9.764V9.39C31.7449 8.26067 32.0089 7.278 32.5369 6.442C33.0649 5.606 33.8203 4.968 34.8029 4.528C35.7856 4.07333 36.9443 3.846 38.2789 3.846C39.5989 3.846 40.7429 4.07333 41.7109 4.528C42.6936 4.968 43.4416 5.606 43.9549 6.442C44.4829 7.278 44.7469 8.26067 44.7469 9.39V9.764C44.7469 10.8787 44.4829 11.854 43.9549 12.69C43.4416 13.5113 42.6936 14.1493 41.7109 14.604C40.7429 15.044 39.5989 15.264 38.2789 15.264ZM38.2569 13.328C39.6063 13.328 40.6623 13.0127 41.4249 12.382C42.1876 11.7513 42.5689 10.8787 42.5689 9.764V9.39C42.5689 8.26067 42.1876 7.38067 41.4249 6.75C40.6623 6.10467 39.6063 5.782 38.2569 5.782C36.8783 5.782 35.8076 6.09733 35.0449 6.728C34.2969 7.35867 33.9229 8.246 33.9229 9.39V9.764C33.9229 10.8787 34.3043 11.7513 35.0669 12.382C35.8443 13.0127 36.9076 13.328 38.2569 13.328ZM53.3395 15.264C52.0048 15.264 50.8462 15.044 49.8635 14.604C48.8808 14.1493 48.1255 13.5113 47.5975 12.69C47.0695 11.854 46.8055 10.8787 46.8055 9.764V9.39C46.8055 8.26067 47.0695 7.278 47.5975 6.442C48.1255 5.606 48.8808 4.968 49.8635 4.528C50.8462 4.07333 52.0048 3.846 53.3395 3.846C54.6595 3.846 55.8035 4.07333 56.7715 4.528C57.7542 4.968 58.5022 5.606 59.0155 6.442C59.5435 7.278 59.8075 8.26067 59.8075 9.39V9.764C59.8075 10.8787 59.5435 11.854 59.0155 12.69C58.5022 13.5113 57.7542 14.1493 56.7715 14.604C55.8035 15.044 54.6595 15.264 53.3395 15.264ZM53.3175 13.328C54.6668 13.328 55.7228 13.0127 56.4855 12.382C57.2482 11.7513 57.6295 10.8787 57.6295 9.764V9.39C57.6295 8.26067 57.2482 7.38067 56.4855 6.75C55.7228 6.10467 54.6668 5.782 53.3175 5.782C51.9388 5.782 50.8682 6.09733 50.1055 6.728C49.3575 7.35867 48.9835 8.246 48.9835 9.39V9.764C48.9835 10.8787 49.3648 11.7513 50.1275 12.382C50.9048 13.0127 51.9682 13.328 53.3175 13.328ZM68.928 3.846C70.2334 3.846 71.3774 4.07333 72.36 4.528C73.3427 4.98267 74.098 5.628 74.626 6.464C75.154 7.28533 75.418 8.25333 75.418 9.368V9.72C75.418 10.8347 75.154 11.81 74.626 12.646C74.098 13.482 73.3427 14.1273 72.36 14.582C71.3774 15.0367 70.2334 15.264 68.928 15.264C68.1214 15.264 67.366 15.1393 66.662 14.89C65.958 14.6407 65.342 14.2813 64.814 13.812V18.74H62.702V4.11H64.66L64.748 5.364C65.2907 4.88 65.9214 4.506 66.64 4.242C67.3587 3.978 68.1214 3.846 68.928 3.846ZM73.24 9.368C73.24 8.25333 72.8514 7.38067 72.074 6.75C71.3114 6.10467 70.2554 5.782 68.906 5.782C68.0407 5.782 67.2414 5.936 66.508 6.244C65.7894 6.552 65.2247 6.97 64.814 7.498V11.59C65.2247 12.118 65.7894 12.5433 66.508 12.866C67.2414 13.174 68.0407 13.328 68.906 13.328C70.2554 13.328 71.3114 13.0053 72.074 12.36C72.8514 11.7147 73.24 10.8347 73.24 9.72V9.368ZM79.4806 15.264C79.0846 15.264 78.762 15.1393 78.5126 14.89C78.2633 14.6407 78.1386 14.3253 78.1386 13.944C78.1386 13.5627 78.2633 13.2473 78.5126 12.998C78.762 12.7487 79.0846 12.624 79.4806 12.624C79.8766 12.624 80.1993 12.7487 80.4486 12.998C80.698 13.2473 80.8226 13.5627 80.8226 13.944C80.8226 14.3253 80.698 14.6407 80.4486 14.89C80.1993 15.1393 79.8766 15.264 79.4806 15.264ZM99.6543 14.67V15H97.4103L95.6943 11.348H87.5543L85.8383 15H83.5943V14.67L90.4143 0.568H92.8343L99.6543 14.67ZM94.7483 9.368L91.6243 2.746L88.5003 9.368H94.7483ZM104.462 0.568V15H102.284V0.568H104.462Z" fill="#070320"/>
</svg>
