<svg width="10" height="10" viewBox="0 0 10 10" fill="none" xmlns="http://www.w3.org/2000/svg">
<path fill-rule="evenodd" clip-rule="evenodd" d="M0.72876 5C0.72876 4.72385 0.952617 4.5 1.22876 4.5H4.5L4.5 1.22876C4.5 0.952617 4.72385 0.728759 5 0.72876C5.27614 0.72876 5.5 0.952617 5.5 1.22876V4.5L8.77123 4.5C9.04737 4.5 9.27123 4.72385 9.27123 5C9.27123 5.27614 9.04737 5.5 8.77123 5.5L5.5 5.5V8.77123C5.5 9.04737 5.27614 9.27123 5 9.27123C4.72385 9.27123 4.5 9.04737 4.5 8.77123L4.5 5.5H1.22876C0.952617 5.5 0.72876 5.27614 0.72876 5Z" fill="white"/>
</svg>
