<svg width="96" height="53" fill="none" xmlns="http://www.w3.org/2000/svg"><path d="M29.15 6.833c-8.958-4.076-16.845 3.66-21.114 12.699-4.213 8.916-1.262 19.479 7.348 23.966 8.833 4.605 22.797-1.666 27.345-10.704 4.607-9.154-4.396-21.781-13.58-25.96zm46.888.207c-8.481-4.99-17.134 1.88-22.325 10.422-5.122 8.427-3.29 19.24 4.803 24.603 8.304 5.503 22.846.726 28.314-7.787 5.539-8.623-2.096-22.121-10.792-27.238z" stroke="#070320" stroke-width="2"/><path d="M28.701 14.431c-5.583-.15-7.972 5.338-8.183 10.716-.208 5.306 3.688 9.931 9.182 10.359 5.637.439 11.523-5.592 11.88-11.029.36-5.506-7.154-9.891-12.878-10.046zm37.869 3.905c-4.55 3.24-3.154 9.06-.086 13.483 3.027 4.363 8.922 5.712 13.568 2.747 4.765-3.041 5.837-11.4 2.85-15.957-3.026-4.615-11.667-3.594-16.331-.273z" fill="#070320"/></svg>