<svg width="81" height="96" fill="none" xmlns="http://www.w3.org/2000/svg"><path d="M45 1l-6 24M7 4l12 18m60-3L67 30" stroke="#E09884" stroke-width="3"/><path fill-rule="evenodd" clip-rule="evenodd" d="M64.466 40.64c4.498 4.2 3.545 10.757.541 15.76-9.723 16.19-19.262 22.524-32.977 35.364C22.002 77.255 10.904 64.647 8.307 50.31 7.21 44.25 7.1 38.154 12.44 35.09c5.34-3.061 10.154.616 15.205 4.132 4.843 3.37 8.961 12.169 8.961 12.169s6.34-7.99 12.113-10.207c5.745-2.206 12.335-3.733 15.747-.546z" fill="#E09884"/></svg>