<svg width="61" height="89" fill="none" xmlns="http://www.w3.org/2000/svg"><path d="M8.634 15.188c5.05 20.905 3.643 29.698-1.506 56.604-.361 1.886 1.881 3.158 3.304 1.868l25.482-23.105 17.594 26.133c1.023 1.519 3.372.961 3.605-.855 3.691-28.798 1.383-41.12-1.929-61.243a11.144 11.144 0 00-6.703-8.474C33.49-.111 28.973-1.759 15.862 1.985c-5.594 1.597-8.596 7.548-7.23 13.203z" fill="#E8E6FF"/><path d="M3.497 22.145c4.44 20.711 3.192 36.866-1.379 61.888-.346 1.897 1.926 3.159 3.344 1.85l28.776-26.545 18.755 26.554c1.043 1.478 3.351.91 3.587-.883 3.518-26.767 2.894-42.787.092-66.547-.465-3.937-3.03-7.358-6.776-8.657-14.615-5.072-25.09-4.78-39.016-.855-5.602 1.58-8.603 7.503-7.383 13.195z" stroke="#5D84CB" stroke-width="3"/></svg>