<svg width="135" height="143" fill="none" xmlns="http://www.w3.org/2000/svg"><path d="M1 4l4 8M17 1l-2 9m15-2l-5 4" stroke="#E09884"/><path fill-rule="evenodd" clip-rule="evenodd" d="M24.974 15.885c1.658 1.489 1.327 3.79.24 5.54-3.516 5.662-6.992 7.861-11.98 12.335-3.711-5.124-7.81-9.584-8.799-14.628-.418-2.132-.475-4.275 1.472-5.337 1.947-1.06 3.72.244 5.58 1.493 1.782 1.197 3.314 4.3 3.314 4.3s2.3-2.79 4.408-3.553c2.098-.76 4.507-1.279 5.765-.15z" fill="#E09884"/><path d="M87.594 132s-3.587 8.539 0 9.803c1.256.443 3.406 0 3.406 0M75.406 132s3.587 8.539 0 9.803c-1.256.443-3.406 0-3.406 0M38 62c-15.5-2-10-20-24-20m113 19c6.371 1.371 7.749 4.297 6.666 13" stroke="#000"/><path d="M127.896 70.754C120.359 103.381 119.856 134 82.675 134c-37.182 0-41.704-35.137-45.22-63.246C33.936 42.645 51.02 1.987 82.674 7.508c40.587 7.08 52.757 30.62 45.221 63.246z" fill="#F9F2CE"/><path d="M127.408 70.642c-.943 4.085-1.777 8.138-2.584 12.097l-.169.827c-.749 3.673-1.48 7.26-2.264 10.724-1.686 7.45-3.607 14.29-6.439 20.103-2.828 5.807-6.557 10.571-11.851 13.889-5.295 3.319-12.2 5.218-21.426 5.218-9.213 0-16.37-2.175-21.983-5.848-5.617-3.674-9.726-8.868-12.805-14.96-6.172-12.205-8.175-27.924-9.937-42-1.745-13.945 1.624-31.024 9.354-43.915C55.028 13.895 67.037 5.288 82.589 8c20.217 3.526 33.255 11.134 40.326 21.826 7.07 10.692 8.244 24.577 4.493 40.815z" stroke="#000"/><ellipse cx="73.5" cy="57" rx="1.5" ry="6" fill="#000"/><ellipse cx="81.5" cy="57" rx="1.5" ry="6" fill="#000"/><path d="M63 69c9.922 4.032 17.262 5.795 31 1.551M71 7l4 8M87 4l-2 9m15-2l-5 4" stroke="#000"/></svg>