<svg width="230" height="230" fill="none" xmlns="http://www.w3.org/2000/svg"><circle cx="115" cy="115" r="114.5" fill="#070320" stroke="#fff"/><circle cx="115" cy="115" r="82.5" stroke="#F9F8FE"/><path d="M115.08 130.472l-14.84-14.896 4.816-4.844 6.608 6.636v-21.84h6.832v21.84l6.664-6.636 4.844 4.844-14.924 14.896z" fill="#fff"/><path d="M210.019 123.99c-.568-.03-1.049-.224-1.442-.581-.393-.347-.679-.853-.859-1.517-.171-.663-.232-1.465-.183-2.407.051-.969.212-1.806.483-2.512.28-.705.649-1.246 1.108-1.624a2.365 2.365 0 011.558-.563l-.125 2.376a1.257 1.257 0 00-.707.384 2.366 2.366 0 00-.479.844 4.644 4.644 0 00-.219 1.25c-.035.662.013 1.165.145 1.508.131.353.346.537.644.552.214.012.384-.101.508-.337.124-.228.231-.657.32-1.287l.189-1.477c.121-.881.307-1.577.559-2.087.251-.51.55-.869.897-1.075a2.113 2.113 0 011.149-.262c.569.03 1.035.232 1.398.606.364.374.627.883.79 1.527.162.654.221 1.4.177 2.239-.045.857-.202 1.615-.47 2.274-.268.659-.618 1.178-1.049 1.557-.431.389-.919.597-1.463.625l.125-2.377c.198-.027.385-.125.562-.293.186-.158.343-.398.472-.718.129-.321.207-.742.235-1.264.031-.587-.016-1.043-.139-1.367-.114-.324-.306-.492-.576-.507-.187-.009-.345.08-.477.27-.122.19-.22.549-.295 1.078l-.255 1.921c-.119.854-.299 1.522-.539 2.005-.231.483-.52.814-.865.992a2.19 2.19 0 01-1.177.247zm-1.207 11.229a3.488 3.488 0 01-1.659-1.07c-.449-.506-.763-1.118-.942-1.836-.179-.718-.203-1.492-.072-2.322.149-.94.451-1.743.906-2.408a4.168 4.168 0 011.731-1.441c.689-.297 1.44-.382 2.251-.253.82.13 1.508.442 2.063.936.563.505.963 1.14 1.201 1.905.236.775.28 1.632.131 2.572-.131.83-.398 1.558-.799 2.184-.393.628-.881 1.113-1.464 1.455a3.426 3.426 0 01-1.909.506l.366-2.309c.554-.035 1.008-.247 1.362-.635.362-.377.591-.87.688-1.479.077-.488.048-.932-.087-1.332a1.934 1.934 0 00-.684-.958c-.32-.249-.733-.414-1.24-.494-.498-.079-.942-.05-1.332.086a2.057 2.057 0 00-.948.701c-.242.339-.402.753-.48 1.242-.098.618-.028 1.163.209 1.635.236.481.594.817 1.074 1.006l-.366 2.309zm4.229 1.707l-.612 2.285-2.896-.283-4.922-1.318.605-2.258 5.166 1.383 2.659.191zm-1.658 6.513l-1.947-.522c.116-.22.22-.444.31-.671.089-.227.162-.444.218-.651.121-.451.135-.882.042-1.294a2.086 2.086 0 00-.651-1.087c-.341-.314-.814-.551-1.418-.713l.695-.321a8.302 8.302 0 011.462.71c.448.275.819.587 1.112.936.299.36.502.757.608 1.192.115.436.102.916-.038 1.439a3.42 3.42 0 01-.178.503 4.042 4.042 0 01-.215.479zm-9.602 3.555c.355-.924.827-1.672 1.417-2.246.599-.57 1.265-.939 2-1.107.743-.165 1.502-.098 2.278.199.784.301 1.393.76 1.826 1.376.442.619.691 1.34.745 2.16.064.824-.082 1.698-.436 2.622-.355.924-.831 1.67-1.43 2.24-.59.574-1.255.938-1.995 1.094-.734.169-1.493.102-2.277-.199-.776-.297-1.385-.756-1.827-1.375-.437-.608-.687-1.323-.75-2.148-.055-.82.095-1.693.449-2.616zm1.66.637c-.194.505-.268.972-.222 1.399.043.436.193.814.45 1.132.263.331.626.585 1.087.762.471.181.91.235 1.318.161a2.06 2.06 0 001.106-.535c.32-.287.577-.684.771-1.189.191-.497.265-.963.222-1.399a2.14 2.14 0 00-.458-1.151c-.258-.318-.622-.568-1.092-.749-.462-.177-.9-.235-1.313-.174a2.173 2.173 0 00-1.097.554c-.324.296-.581.692-.772 1.189zm5.278 10.751l-1.025 2.101-9.69-4.724 1.025-2.101 9.69 4.724zm-1.964 4.828l-1.133 2.045-9.429-5.224 1.134-2.045 9.428 5.224zm-18.913 8.211l2.633 1.497.507.922 1.195.332 4.206 3.833-1.424 1.959-4.916-4.522-3.625-2.061 1.424-1.96zm2.88 2.801c-.592-.614-1.027-1.27-1.305-1.968a4.221 4.221 0 01-.297-2.067c.071-.686.327-1.331.765-1.936.456-.626.999-1.08 1.629-1.36a3.73 3.73 0 012.012-.269c.706.109 1.395.407 2.067.895.679.494 1.176 1.057 1.49 1.688.316.645.438 1.31.367 1.997-.064.691-.324 1.35-.779 1.977-.439.604-.974 1.046-1.605 1.326a4.292 4.292 0 01-2.078.36c-.741-.043-1.497-.257-2.266-.643zm3.48-4.791c-.377-.274-.765-.44-1.161-.497a2.23 2.23 0 00-1.149.152 2.267 2.267 0 00-.921.767c-.258.355-.42.745-.486 1.17-.064.437-.041.881.071 1.331.111.45.306.88.585 1.29.476.139.946.191 1.408.158.47-.028.9-.143 1.289-.344.391-.189.715-.461.973-.816a2.18 2.18 0 00.434-1.121 2.091 2.091 0 00-.211-1.139c-.177-.36-.454-.676-.832-.951zm-11.311 8.863c.675-.724 1.393-1.241 2.155-1.551.769-.305 1.525-.397 2.269-.278.75.126 1.43.472 2.037 1.038.615.573 1.007 1.226 1.178 1.959.178.74.139 1.501-.118 2.282-.25.788-.712 1.544-1.387 2.267-.674.724-1.396 1.238-2.165 1.542-.761.311-1.514.4-2.259.267-.743-.119-1.423-.465-2.037-1.038-.608-.566-1-1.219-1.178-1.959-.177-.727-.141-1.484.109-2.272.256-.781.722-1.534 1.396-2.257zm1.301 1.212c-.369.396-.613.801-.73 1.214-.124.42-.126.827-.007 1.218.12.406.361.777.723 1.114.368.344.755.558 1.161.643.406.098.815.07 1.226-.083.404-.146.791-.417 1.16-.813.363-.389.606-.794.73-1.214a2.14 2.14 0 00.006-1.238c-.119-.392-.363-.76-.732-1.104-.362-.337-.746-.554-1.152-.652a2.171 2.171 0 00-1.225.102c-.41.153-.797.424-1.16.813zm-13.146 11.847l.599-.484 2.275 6.768-1.816 1.471-2.621-8.128 1.86-1.506 6.394 3.667-.653.528-2.227-7.041 1.861-1.506 7.407 4.251-1.838 1.489-6.16-3.623.62-.502 2.232 6.803-1.773 1.436-6.16-3.623zm-.587 7.735l-2.004 1.204-1.997-2.344-2.539-4.224 2.004-1.204 2.719 4.523 1.817 2.045zm-4.932 3.208c-.648.389-1.279.589-1.894.599a2.955 2.955 0 01-1.707-.477c-.529-.335-.992-.835-1.391-1.499l-2.28-3.792 2.004-1.204 2.099 3.492c.37.616.797.991 1.281 1.125.488.142 1.016.042 1.584-.299.384-.231.671-.523.862-.877.187-.341.269-.711.246-1.111-.031-.396-.173-.805-.428-1.229l.869-.049c.353.768.526 1.491.52 2.17-.006.679-.161 1.289-.467 1.832a3.56 3.56 0 01-1.298 1.319zm-13.996 1.872c.32-.129.64-.173.959-.131.322.051.614.175.875.372.255.208.448.473.577.793.133.329.178.653.136.972a1.819 1.819 0 01-.376.861c-.206.265-.464.46-.776.585a1.81 1.81 0 01-.977.123 1.711 1.711 0 01-.856-.363 1.814 1.814 0 01-.591-.788 1.87 1.87 0 01-.123-.977c.042-.319.162-.609.359-.87.191-.248.456-.441.793-.577zm-16.783 4.215c-.148-.55-.112-1.066.106-1.55.209-.481.601-.91 1.177-1.286.578-.368 1.322-.673 2.232-.917.938-.252 1.784-.357 2.539-.318.757.048 1.386.232 1.887.552.501.32.84.756 1.017 1.307l-2.299.616a1.245 1.245 0 00-.583-.553 2.352 2.352 0 00-.951-.195 4.664 4.664 0 00-1.257.177c-.64.172-1.103.373-1.389.604-.294.234-.403.495-.326.783.056.208.215.334.479.38.254.047.695.016 1.322-.094l1.463-.276c.875-.157 1.595-.195 2.158-.114.562.081.995.255 1.299.521a2.1 2.1 0 01.604 1.012c.148.55.1 1.056-.144 1.517-.243.461-.646.869-1.208 1.222-.572.356-1.263.643-2.074.86-.83.223-1.599.308-2.309.257-.709-.052-1.311-.224-1.805-.517-.503-.29-.851-.689-1.045-1.198l2.298-.616c.087.18.238.328.453.444.208.128.484.204.829.227.344.024.769-.032 1.274-.167.568-.152.987-.337 1.257-.554.273-.209.374-.444.304-.705-.048-.18-.183-.304-.404-.37-.218-.058-.59-.04-1.116.053l-1.906.351c-.849.15-1.54.185-2.073.106-.531-.07-.935-.242-1.211-.516a2.179 2.179 0 01-.598-1.043zm-11.171 2.365a3.493 3.493 0 01.539-1.9c.352-.577.846-1.056 1.48-1.438.634-.381 1.367-.63 2.199-.747.943-.133 1.799-.078 2.568.162a4.166 4.166 0 011.884 1.234c.485.572.785 1.265.9 2.079.115.822.018 1.571-.292 2.246a4.167 4.167 0 01-1.471 1.705c-.672.453-1.479.745-2.421.878-.832.117-1.606.075-2.322-.126-.715-.192-1.322-.517-1.82-.974a3.432 3.432 0 01-1.041-1.678l2.315-.325c.195.519.531.891 1.005 1.117.467.236 1.005.311 1.615.225.49-.069.906-.226 1.248-.472.335-.236.574-.547.717-.935.145-.378.182-.822.11-1.33-.07-.499-.228-.915-.472-1.248a2.045 2.045 0 00-.947-.701c-.396-.133-.838-.165-1.328-.096-.619.087-1.12.312-1.502.677a1.97 1.97 0 00-.649 1.321l-2.315.326zM122.181 216l-2.363.124-.625-2.841-.267-5.089 2.334-.122.28 5.34.641 2.588zm-6.706.436l-.106-2.013a6.61 6.61 0 001.421.093c.466-.024.88-.144 1.243-.359.362-.215.64-.534.833-.955.193-.421.273-.944.24-1.569l.52.562a8.356 8.356 0 01-.224 1.61c-.123.511-.305.96-.546 1.346-.25.396-.565.712-.946.947-.379.244-.84.38-1.38.409a3.41 3.41 0 01-.534-.015 3.85 3.85 0 01-.521-.056zm-6.169-8.911c.988.051 1.845.269 2.573.653.727.393 1.284.913 1.671 1.56.386.655.557 1.398.514 2.227-.044.839-.292 1.56-.745 2.162-.452.612-1.06 1.071-1.824 1.377-.764.315-1.64.446-2.628.394-.988-.051-1.846-.274-2.573-.667-.727-.384-1.279-.904-1.656-1.559-.387-.646-.558-1.389-.514-2.228.043-.829.291-1.55.744-2.161.443-.603 1.046-1.062 1.81-1.378.764-.305 1.64-.432 2.628-.38zm-.093 1.775c-.541-.028-1.007.045-1.4.221a2.088 2.088 0 00-.938.778c-.233.352-.363.775-.389 1.269-.026.504.059.938.255 1.303.185.374.469.67.85.886.372.216.828.338 1.369.366.531.028.998-.046 1.399-.221a2.14 2.14 0 00.953-.791c.224-.344.349-.767.375-1.27.026-.494-.054-.928-.24-1.302a2.165 2.165 0 00-.866-.873c-.381-.216-.837-.338-1.368-.366zm-8.638 8.388l-2.315-.325 1.5-10.675 2.316.326-1.501 10.674zm-4.826-1.018l-2.295-.446 2.058-10.581 2.295.446-2.058 10.581zM81.79 202.088l-.663 2.955-.733.754.032 1.24-2.438 5.142-2.29-.788 2.89-6.023.912-4.068 2.29.788zm-1.838 3.572c.415-.745.916-1.353 1.502-1.822a4.213 4.213 0 011.89-.889c.677-.132 1.369-.077 2.075.166.732.253 1.325.639 1.777 1.16.45.53.73 1.145.845 1.846.102.706.018 1.452-.253 2.237-.273.794-.666 1.434-1.179 1.919a3.61 3.61 0 01-1.802.934c-.68.141-1.387.085-2.12-.167-.705-.243-1.284-.625-1.736-1.146a4.295 4.295 0 01-.951-1.882c-.176-.722-.192-1.507-.048-2.356zm5.6 1.928c.151-.441.197-.86.136-1.256a2.23 2.23 0 00-.481-1.054 2.261 2.261 0 00-1.003-.656 2.658 2.658 0 00-1.26-.123 3.417 3.417 0 00-1.254.457 4 4 0 00-1.063.937c.007.495.094.96.261 1.392.164.442.4.819.706 1.132.295.318.65.549 1.064.692a2.18 2.18 0 001.2.087 2.103 2.103 0 001.027-.534c.292-.275.514-.633.666-1.074zm-11.215-8.746c.889.434 1.593.969 2.113 1.607.516.646.825 1.342.928 2.088.1.755-.033 1.505-.397 2.252-.369.754-.879 1.321-1.53 1.699-.656.386-1.395.571-2.218.554-.826-.009-1.684-.23-2.573-.664-.89-.433-1.592-.973-2.107-1.619-.52-.638-.825-1.332-.916-2.082-.103-.746.03-1.497.398-2.252.364-.746.874-1.313 1.53-1.699.643-.382 1.378-.569 2.204-.56.823.017 1.679.242 2.568.676zm-.78 1.598c-.486-.237-.945-.352-1.374-.344a2.085 2.085 0 00-1.168.35c-.352.233-.637.572-.854 1.016-.221.453-.313.886-.275 1.299.025.417.17.8.437 1.148.258.343.63.634 1.116.871.478.234.937.348 1.375.344a2.15 2.15 0 001.186-.356c.34-.229.62-.57.842-1.023.217-.444.313-.875.288-1.292a2.17 2.17 0 00-.456-1.141c-.266-.348-.639-.639-1.117-.872zm-14.979-9.424l.639.431-5.809 4.153-1.938-1.307 7.009-4.881 1.984 1.339-1.64 7.185-.696-.47 6.085-4.187 1.984 1.339-1.902 8.325-1.961-1.323 1.665-6.948.662.446-5.855 4.122-1.892-1.276 1.666-6.948zm-7.914 2.163l-1.737-1.564 1.659-2.594 3.298-3.662 1.737 1.565-3.532 3.921-1.425 2.334zm-4.51-3.778c-.561-.506-.937-1.051-1.126-1.636a2.955 2.955 0 01-.043-1.772c.166-.603.51-1.193 1.028-1.768l2.96-3.287 1.738 1.564-2.727 3.027c-.48.534-.715 1.052-.702 1.553.007.509.257.985.749 1.428.333.3.696.489 1.09.567.381.079.76.05 1.136-.089.369-.145.719-.401 1.05-.768l.3.816c-.631.562-1.272.939-1.923 1.132-.65.192-1.28.222-1.889.089a3.568 3.568 0 01-1.64-.856zm-5.751-13.28c.222.265.362.555.42.872.052.322.024.638-.082.946-.12.308-.312.572-.577.794a1.903 1.903 0 01-.882.43c-.322.051-.634.02-.936-.092a1.835 1.835 0 01-.796-.557 1.807 1.807 0 01-.419-.891 1.714 1.714 0 01.081-.927 1.81 1.81 0 01.568-.804 1.86 1.86 0 01.891-.419c.317-.059.63-.034.938.072.295.105.56.298.794.576zm-9.743-14.354c.483-.302.987-.419 1.513-.352.522.06 1.047.31 1.575.75.52.445 1.03 1.068 1.53 1.867.514.823.863 1.601 1.046 2.334.175.738.183 1.394.023 1.966a2.369 2.369 0 01-.953 1.355l-1.261-2.018c.192-.186.312-.426.36-.72a2.376 2.376 0 00-.093-.966 4.66 4.66 0 00-.537-1.15c-.35-.562-.679-.946-.983-1.152-.31-.213-.592-.241-.845-.083-.182.114-.256.303-.222.568.028.258.187.67.476 1.238l.691 1.318c.407.791.653 1.468.74 2.03.087.562.048 1.026-.119 1.394a2.109 2.109 0 01-.79.874c-.484.302-.981.403-1.494.305-.512-.098-1.02-.364-1.522-.798-.508-.442-.984-1.02-1.43-1.732-.454-.728-.76-1.439-.919-2.133-.158-.693-.17-1.319-.034-1.876.13-.566.411-1.016.84-1.351l1.262 2.019a1.014 1.014 0 00-.293.562c-.061.236-.053.523.025.859.078.336.256.726.533 1.169.311.499.61.846.898 1.041.278.2.533.228.762.085.159-.099.237-.264.236-.495-.009-.225-.134-.576-.377-1.052l-.893-1.72c-.391-.767-.627-1.418-.707-1.951-.088-.528-.042-.964.14-1.308.176-.353.45-.645.822-.877zm-5.39-9.488a3.499 3.499 0 011.974-.074c.658.157 1.266.478 1.825.964.559.485 1.022 1.105 1.39 1.86.418.856.63 1.687.64 2.492a4.165 4.165 0 01-.592 2.173c-.394.639-.96 1.138-1.699 1.498-.747.364-1.489.503-2.227.416a4.17 4.17 0 01-2.076-.872c-.638-.499-1.166-1.176-1.583-2.032-.368-.755-.567-1.504-.598-2.247-.038-.739.083-1.416.365-2.031a3.43 3.43 0 011.273-1.509l1.025 2.102c-.433.346-.684.779-.752 1.3-.08.517.015 1.052.285 1.606.217.445.495.792.835 1.041.327.246.697.377 1.11.393.405.021.838-.081 1.3-.306.453-.221.8-.499 1.041-.835.233-.331.358-.704.374-1.117.004-.417-.102-.848-.319-1.293-.274-.562-.643-.968-1.108-1.219a1.972 1.972 0 00-1.457-.209l-1.025-2.101zm-4.772.184l-.809-2.223 2.534-1.428 4.789-1.742.8 2.196-5.026 1.829-2.288 1.368zm-2.377-6.285l1.895-.69a6.6 6.6 0 00.325 1.387c.16.438.396.799.708 1.083a2.08 2.08 0 001.156.518c.46.061.983-.015 1.57-.229l-.384.661a8.359 8.359 0 01-1.605.257 4.508 4.508 0 01-1.448-.129 2.941 2.941 0 01-1.181-.628c-.345-.292-.61-.692-.795-1.201a3.402 3.402 0 01-.142-.514 4.005 4.005 0 01-.099-.515zm6.349-7.898c.24.96.283 1.844.128 2.652-.163.81-.498 1.494-1.003 2.053-.514.561-1.174.942-1.98 1.143-.815.203-1.577.176-2.285-.08-.717-.254-1.334-.702-1.85-1.343-.524-.638-.907-1.437-1.146-2.397-.24-.96-.277-1.845-.113-2.656.154-.807.49-1.487 1.006-2.039.505-.559 1.165-.94 1.98-1.143.806-.201 1.568-.174 2.285.08.706.247 1.322.69 1.846 1.329.516.641.893 1.441 1.133 2.401zm-1.724.43c-.131-.525-.338-.95-.62-1.274a2.076 2.076 0 00-1.019-.669c-.405-.121-.848-.121-1.328-.001-.489.121-.88.329-1.171.623a2.06 2.06 0 00-.599 1.073c-.097.419-.08.89.05 1.416.129.516.336.94.62 1.273.286.333.63.56 1.036.68.394.114.835.109 1.324-.012.48-.12.872-.324 1.175-.611.293-.294.486-.655.582-1.082.095-.428.078-.9-.05-1.416zm-10.703-5.085l-.366-2.309 10.647-1.685.366 2.309-10.647 1.685zm-.933-5.839l-.243-2.325 10.72-1.126.244 2.325-10.72 1.126zm10.031-17.758l-3.015.283-.944-.464-1.17.414-5.643-.729.042-2.421 6.621.885 4.152-.39-.043 2.422zm-3.965-.643c.837.164 1.57.452 2.197.864a4.222 4.222 0 011.43 1.523c.335.603.495 1.278.482 2.025-.013.774-.198 1.457-.553 2.048a3.724 3.724 0 01-1.494 1.374c-.64.316-1.376.466-2.206.452-.84-.015-1.57-.191-2.19-.528a3.602 3.602 0 01-1.445-1.426c-.344-.603-.51-1.292-.496-2.066.013-.747.198-1.416.553-2.007a4.3 4.3 0 011.496-1.486c.633-.39 1.375-.648 2.226-.773zm-.103 5.92c.466.009.879-.078 1.236-.258.358-.19.643-.451.854-.783.202-.333.307-.718.314-1.157a2.668 2.668 0 00-.272-1.237 3.432 3.432 0 00-.822-1.05 3.985 3.985 0 00-1.22-.721 3.975 3.975 0 00-1.243.678 3.17 3.17 0 00-.858 1.021 2.568 2.568 0 00-.33 1.226c-.007.439.089.828.288 1.168.19.339.466.61.826.812.351.193.76.293 1.227.301zm4.757-13.721c-.138.98-.43 1.815-.876 2.507-.455.69-1.021 1.199-1.699 1.528-.687.328-1.441.434-2.264.318-.832-.117-1.528-.427-2.089-.93-.57-.504-.974-1.15-1.212-1.937-.247-.789-.302-1.673-.164-2.652.137-.98.434-1.815.889-2.505.446-.691 1.012-1.196 1.697-1.514.678-.33 1.433-.435 2.264-.319.823.116 1.52.426 2.09.93.561.494.966 1.135 1.213 1.924.238.787.288 1.67.15 2.65zm-1.76-.247c.074-.536.042-1.007-.1-1.413a2.08 2.08 0 00-.692-1.003c-.33-.263-.741-.429-1.23-.498-.5-.07-.94-.023-1.321.14a2.06 2.06 0 00-.957.77c-.247.352-.408.796-.484 1.332-.074.527-.04.998.099 1.413.14.416.374.755.705 1.018.322.253.733.414 1.232.484.49.069.93.027 1.319-.126a2.17 2.17 0 00.944-.786c.249-.361.41-.804.484-1.331zm4.335-16.892l-.212.74-5.746-4.24.645-2.246 6.808 5.155-.66 2.301-7.34.663.231-.808 5.863 4.491-.66 2.302-8.506.766.652-2.275 7.123-.565-.22.767-5.73-4.293.63-2.193 7.122-.565zm-4.722-7.352l.988-2.12 2.966.828 4.466 2.081-.988 2.12-4.783-2.23-2.65-.68zm2.294-5.418c.32-.685.731-1.203 1.235-1.555a2.956 2.956 0 011.682-.56c.626-.017 1.29.138 1.992.465l4.01 1.869-.988 2.119-3.693-1.722c-.651-.303-1.215-.375-1.69-.216-.485.155-.867.533-1.147 1.134-.19.406-.264.808-.224 1.208.036.388.175.74.418 1.06.246.31.594.57 1.042.779l-.693.526c-.722-.44-1.27-.942-1.645-1.508a3.739 3.739 0 01-.637-1.78c-.05-.62.062-1.227.338-1.819zm10.388-9.151c-.188.29-.425.508-.71.657a1.93 1.93 0 01-.93.198 1.948 1.948 0 01-.928-.32 1.897 1.897 0 01-.669-.717 1.816 1.816 0 01-.186-.922c.017-.334.117-.642.3-.924.193-.297.436-.517.73-.66.285-.15.589-.214.91-.194.326.011.638.113.935.307.29.188.51.43.662.73.148.285.217.59.205.917-.014.313-.12.623-.319.928zm11.612-13.233c.43.374.69.822.779 1.345.095.515.01 1.09-.257 1.724-.273.628-.72 1.297-1.338 2.009-.636.732-1.279 1.293-1.926 1.683-.655.383-1.28.582-1.874.597a2.37 2.37 0 01-1.574-.515l1.561-1.796c.234.13.499.174.794.133.287-.046.586-.17.897-.37.316-.207.63-.49.942-.85.435-.5.706-.926.814-1.277.114-.359.058-.636-.167-.832-.162-.14-.365-.157-.609-.047-.238.103-.586.375-1.044.818l-1.058 1.046c-.638.62-1.213 1.054-1.725 1.301-.512.248-.969.346-1.37.295a2.107 2.107 0 01-1.066-.5c-.43-.374-.673-.82-.73-1.339-.055-.519.05-1.082.32-1.69.274-.614.687-1.238 1.238-1.872.563-.648 1.153-1.149 1.77-1.503.617-.354 1.212-.548 1.785-.582.58-.04 1.092.096 1.537.409l-1.561 1.796c-.172-.1-.38-.139-.623-.115-.244.01-.516.102-.815.275-.298.173-.62.457-.962.851-.386.444-.63.832-.733 1.163-.11.325-.062.577.142.754.141.122.322.15.542.081.213-.074.512-.297.896-.668l1.384-1.357c.62-.599 1.173-1.015 1.66-1.247.479-.239.91-.322 1.292-.25.388.066.748.242 1.079.53zm7.688-8.265a3.49 3.49 0 01.649 1.865c.042.675-.087 1.35-.388 2.026-.3.677-.758 1.301-1.373 1.874-.696.65-1.428 1.096-2.196 1.34a4.166 4.166 0 01-2.251.07c-.727-.19-1.37-.586-1.93-1.186-.567-.608-.916-1.277-1.05-2.008a4.162 4.162 0 01.227-2.24c.29-.756.784-1.458 1.48-2.107.614-.573 1.273-.983 1.974-1.23.696-.252 1.38-.334 2.05-.245.67.076 1.276.335 1.815.777l-1.71 1.594c-.458-.313-.946-.426-1.464-.338-.518.074-1.002.321-1.452.742-.362.337-.612.704-.752 1.102a1.94 1.94 0 00-.05 1.177c.098.393.322.777.672 1.153.344.368.712.619 1.104.751.385.126.777.136 1.177.031.4-.118.782-.346 1.143-.683.458-.426.738-.899.842-1.417a1.968 1.968 0 00-.227-1.453l1.71-1.595zm-1.552-4.582l1.865-1.456 2.142 1.968 3.138 4.014-1.842 1.44-3.293-4.213-2.01-1.753zm5.244-4.203l1.241 1.588a6.617 6.617 0 00-1.218.738 2.67 2.67 0 00-.811 1.008 2.08 2.08 0 00-.135 1.26c.084.455.318.93.703 1.422l-.748-.161a8.347 8.347 0 01-.74-1.447 4.51 4.51 0 01-.325-1.416 2.936 2.936 0 01.232-1.318c.17-.418.47-.794.896-1.127.14-.109.288-.207.445-.294.158-.1.312-.185.46-.253zm9.793 2.922c-.838.525-1.666.838-2.482.941-.821.095-1.576-.011-2.263-.319-.693-.316-1.26-.825-1.7-1.53-.445-.712-.655-1.445-.63-2.197.02-.761.254-1.485.704-2.174.446-.696 1.088-1.307 1.927-1.83.839-.525 1.669-.835 2.49-.93.816-.102 1.567.006 2.251.327.688.308 1.254.817 1.7 1.53.44.704.65 1.436.63 2.197-.017.748-.248 1.47-.693 2.166-.45.689-1.094 1.295-1.933 1.82zm-.942-1.507c.46-.287.8-.615 1.02-.984a2.08 2.08 0 00.322-1.175c-.011-.422-.148-.843-.41-1.263-.267-.427-.586-.734-.956-.921a2.056 2.056 0 00-1.205-.237c-.428.036-.872.198-1.33.485-.452.282-.792.61-1.02.983a2.142 2.142 0 00-.327 1.195c.014.41.154.828.422 1.255.262.42.577.73.944.929.37.187.773.26 1.21.218.435-.041.88-.203 1.33-.485zm1.041-11.187l2.083-1.061 4.895 9.603-2.083 1.062-4.895-9.604zm4.867-2.886l2.136-.95 4.386 9.846-2.136.951-4.386-9.847zm19.644 4.609l-1.153-2.8.168-1.039-.738-.997-.954-5.61 2.328-.668 1.09 6.59 1.587 3.857-2.328.667zm-.545-3.98c.088.849.027 1.634-.184 2.354a4.215 4.215 0 01-1.038 1.813c-.48.496-1.078.847-1.795 1.053-.745.213-1.452.237-2.121.07a3.725 3.725 0 01-1.751-1.028c-.49-.52-.848-1.179-1.077-1.977-.232-.808-.277-1.557-.135-2.248a3.605 3.605 0 01.94-1.799c.476-.505 1.087-.865 1.831-1.078.718-.206 1.412-.225 2.081-.058a4.293 4.293 0 011.859.996c.558.49 1.021 1.125 1.39 1.902zm-5.692 1.633c.129.448.331.817.609 1.107.286.286.619.482.998.587a2.26 2.26 0 001.198-.038c.422-.12.79-.328 1.103-.622.32-.305.575-.67.765-1.093a4 4 0 00.333-1.377 3.994 3.994 0 00-1.013-.991 3.167 3.167 0 00-1.227-.522 2.566 2.566 0 00-1.27.044c-.421.12-.765.326-1.031.616a2.1 2.1 0 00-.536 1.027c-.081.393-.058.813.07 1.262zm15.08 1.338c-.978.155-1.862.12-2.653-.104-.793-.234-1.446-.626-1.959-1.178-.514-.561-.836-1.252-.966-2.073-.131-.83-.039-1.586.278-2.269.316-.692.815-1.268 1.499-1.725.682-.467 1.511-.778 2.488-.933.977-.155 1.862-.115 2.655.118.792.224 1.44.618 1.945 1.18.512.552.834 1.243.966 2.072.13.82.037 1.577-.278 2.27-.308.682-.803 1.256-1.485 1.723-.683.458-1.513.764-2.49.919zm-.279-1.756c.535-.085.976-.254 1.323-.507.357-.255.608-.574.756-.956.155-.393.194-.834.116-1.322-.079-.498-.252-.905-.52-1.222a2.056 2.056 0 00-1.016-.69c-.408-.133-.88-.158-1.415-.073-.525.083-.966.252-1.322.507a2.143 2.143 0 00-.768.972c-.147.382-.181.822-.102 1.32.077.489.246.897.505 1.224.268.317.61.541 1.028.674.418.132.89.156 1.415.073zm17.404-1.904l-.77.014 2.375-6.734 2.337-.041-2.94 8.018-2.394.042-2.779-6.826.84-.015-2.582 6.92-2.393.041-3.219-7.91 2.366-.041 2.622 6.646-.798.014 2.431-6.735 2.281-.04 2.623 6.647zm6.036-6.473l2.321.286.13 3.076-.601 4.891-2.32-.285.643-5.238-.173-2.73zm5.862.509c.75.092 1.371.324 1.861.694.492.361.842.837 1.052 1.427.209.59.267 1.269.173 2.038l-.54 4.39-2.32-.284.497-4.044c.087-.713-.018-1.271-.317-1.675-.297-.412-.774-.659-1.432-.74a2.286 2.286 0 00-1.219.161 2.03 2.03 0 00-.878.724c-.22.33-.359.741-.42 1.232l-.714-.497c.195-.822.503-1.498.926-2.03.423-.53.921-.916 1.496-1.156a3.56 3.56 0 011.835-.24zm11.222 7.387a1.868 1.868 0 01-.844-.473 1.931 1.931 0 01-.475-.823 1.944 1.944 0 01.017-.98c.091-.343.25-.63.476-.859a1.82 1.82 0 01.819-.461c.323-.088.647-.088.972 0 .342.091.627.254.854.489.229.226.384.494.465.806.09.314.089.642-.003.985a1.86 1.86 0 01-.49.854c-.226.23-.495.389-.809.478-.303.084-.63.078-.982-.016zm16.499 7.386c-.222.524-.568.91-1.038 1.156-.461.25-1.035.347-1.72.29-.682-.067-1.456-.284-2.324-.653-.893-.379-1.625-.816-2.195-1.312-.567-.504-.949-1.036-1.147-1.597a2.371 2.371 0 01.003-1.656l2.191.93c-.051.262-.011.527.118.795.134.26.343.506.63.739.295.237.661.448 1.099.634.61.259 1.099.385 1.467.379.376-.002.622-.141.739-.416.084-.198.036-.395-.143-.593-.171-.195-.538-.441-1.1-.741l-1.322-.683c-.787-.415-1.378-.828-1.771-1.238-.394-.41-.628-.814-.703-1.21a2.117 2.117 0 01.147-1.17c.223-.524.572-.893 1.048-1.107.476-.213 1.044-.287 1.705-.219.669.071 1.391.271 2.164.6.79.335 1.449.741 1.976 1.218.528.478.896.984 1.105 1.518.217.539.246 1.068.086 1.588l-2.191-.93a1.007 1.007 0 00-.083-.628c-.085-.229-.256-.459-.513-.69-.257-.23-.626-.447-1.107-.652-.541-.23-.985-.342-1.332-.337-.343-.004-.568.119-.673.368-.073.172-.043.352.09.54.136.18.44.395.912.646l1.718.896c.761.405 1.327.802 1.699 1.193.375.382.587.766.636 1.152.058.39.001.786-.171 1.19zm9.956 3.99a3.492 3.492 0 01-1.595 1.165c-.633.238-1.317.312-2.051.222-.735-.09-1.466-.345-2.194-.765-.824-.476-1.465-1.046-1.923-1.709a4.17 4.17 0 01-.725-2.132c-.03-.75.161-1.48.571-2.192.416-.719.954-1.249 1.614-1.59a4.165 4.165 0 012.209-.438c.808.057 1.624.323 2.448.8.728.42 1.312.93 1.752 1.528.446.591.724 1.22.834 1.888a3.431 3.431 0 01-.212 1.963l-2.025-1.17c.166-.529.131-1.028-.104-1.498-.222-.473-.6-.864-1.134-1.172-.428-.247-.853-.38-1.274-.396a1.942 1.942 0 00-1.141.295c-.347.209-.649.536-.906.98-.252.437-.384.861-.396 1.275-.008.405.097.783.314 1.135.23.348.559.646.988.893.541.313 1.075.443 1.601.391a1.97 1.97 0 001.324-.642l2.025 1.17zm4.648-3.09l1.938 1.357-1.257 2.623-2.924 4.174-1.915-1.341 3.068-4.38 1.09-2.433zm5.552 3.785l-1.156 1.651a6.788 6.788 0 00-.524-.52 6.018 6.018 0 00-.538-.429 2.675 2.675 0 00-1.201-.482 2.083 2.083 0 00-1.245.24c-.411.213-.796.576-1.155 1.088l-.064-.763a8.373 8.373 0 011.168-1.13 4.509 4.509 0 011.26-.724 2.935 2.935 0 011.328-.164c.449.041.896.217 1.339.528.146.101.283.214.412.339.142.122.268.244.376.366zm-.718 10.278c-.747-.649-1.288-1.349-1.625-2.099-.331-.758-.45-1.51-.356-2.257.099-.755.421-1.445.967-2.072.551-.634 1.19-1.049 1.917-1.245.734-.203 1.495-.19 2.286.039.796.222 1.567.658 2.314 1.307.746.649 1.285 1.352 1.616 2.11.337.75.452 1.5.345 2.247-.093.748-.415 1.438-.967 2.072-.545.627-1.184 1.042-1.917 1.245-.721.203-1.479.193-2.275-.03-.79-.229-1.558-.668-2.305-1.317zm1.167-1.341c.408.355.821.584 1.239.687.424.11.83.097 1.218-.035.401-.134.763-.388 1.088-.761.331-.38.531-.775.602-1.183.084-.41.042-.817-.125-1.222-.16-.399-.444-.776-.853-1.13-.401-.35-.814-.579-1.239-.688a2.144 2.144 0 00-1.238.037c-.387.133-.747.39-1.077.77-.325.373-.529.764-.613 1.173a2.16 2.16 0 00.145 1.22c.167.405.451.782.853 1.132zm11.343-1.083l1.624 1.682-7.755 7.486-1.624-1.681 7.755-7.487zm3.852 2.907l1.534 1.764-8.137 7.07-1.533-1.764 8.136-7.07zm1.84 20.861l2.308-1.961 1.04-.16.72-1.01 5.042-2.64 1.354 2.008-5.932 3.071-3.178 2.7-1.354-2.008zm3.618-1.747c-.78.346-1.546.53-2.296.552a4.216 4.216 0 01-2.045-.428c-.62-.302-1.139-.763-1.557-1.382-.433-.642-.673-1.307-.721-1.995a3.719 3.719 0 01.436-1.983c.343-.625.86-1.17 1.548-1.634.697-.47 1.395-.744 2.097-.823a3.604 3.604 0 012.001.339c.628.297 1.159.767 1.592 1.409.417.619.65 1.272.698 1.96a4.288 4.288 0 01-.374 2.076c-.294.682-.754 1.318-1.379 1.91zm-3.312-4.909c-.387.26-.675.568-.865.92a2.233 2.233 0 00-.25 1.132c.025.388.161.764.406 1.128.245.363.556.649.933.857.389.21.814.34 1.275.389.461.05.932.013 1.413-.109.293-.4.503-.823.63-1.269.135-.45.174-.893.117-1.328a2.56 2.56 0 00-.433-1.194 2.183 2.183 0 00-.905-.79 2.103 2.103 0 00-1.143-.193 2.614 2.614 0 00-1.178.457zm4.517 14.318c-.449-.881-.689-1.733-.721-2.555-.023-.826.149-1.568.516-2.226.375-.662.932-1.182 1.672-1.559.749-.381 1.497-.527 2.245-.436.756.086 1.457.383 2.104.892.655.504 1.207 1.197 1.656 2.079.449.88.685 1.735.708 2.561.031.822-.142 1.56-.522 2.214-.366.658-.924 1.177-1.672 1.558-.74.378-1.488.523-2.244.437-.744-.082-1.443-.376-2.098-.88-.647-.508-1.195-1.203-1.644-2.085zm1.584-.807c.246.483.543.85.891 1.102.353.26.734.401 1.143.423.422.026.853-.073 1.294-.297.449-.23.783-.52 1.001-.872a2.05 2.05 0 00.342-1.18c.001-.43-.121-.885-.367-1.368-.242-.474-.539-.84-.891-1.101a2.145 2.145 0 00-1.162-.43c-.409-.022-.838.082-1.287.31-.441.225-.777.511-1.008.86a2.17 2.17 0 00-.323 1.185c.003.438.126.894.367 1.368zm6.319 16.528l-.251-.728 7.139.178.761 2.21-8.534-.319-.78-2.263 5.634-4.752.273.794-7.379-.318-.779-2.263 6.529-5.505.77 2.237-5.511 4.548-.26-.755 7.157.231.743 2.158-5.512 4.547zm7.432 2.522l.406 2.302-2.905 1.024-4.853.855-.405-2.302 5.197-.916 2.56-.963zm1.227 5.754c.132.744.092 1.405-.119 1.982a2.957 2.957 0 01-1.057 1.423c-.503.373-1.136.627-1.899.761l-4.356.768-.406-2.302 4.012-.707c.708-.125 1.211-.389 1.509-.792.308-.405.404-.934.289-1.586a2.287 2.287 0 00-.51-1.119 2.028 2.028 0 00-.949-.628c-.38-.114-.814-.127-1.301-.041l.266-.829c.843-.054 1.581.044 2.212.293a3.735 3.735 0 011.543 1.092 3.55 3.55 0 01.766 1.685zm-2.884 13.758c-.012-.345.056-.66.205-.945a1.92 1.92 0 01.648-.695c.284-.169.598-.259.943-.271.355-.013.675.055.96.204.286.158.513.375.681.649.178.283.273.593.285.928.012.355-.061.675-.219.961a1.71 1.71 0 01-.635.68 1.807 1.807 0 01-.942.285 1.87 1.87 0 01-.96-.218 1.82 1.82 0 01-.695-.635 1.85 1.85 0 01-.271-.943z" fill="#EFEEF4"/></svg>