<svg width="409" height="265" fill="none" xmlns="http://www.w3.org/2000/svg"><path d="M348 29l8 16m25-21l-4 18m31-4l-10 8" stroke="#E09884"/><path fill-rule="evenodd" clip-rule="evenodd" d="M395.849 53.984c3.371 3.165 2.651 8.111.394 11.887-7.306 12.22-14.466 17.003-24.765 26.698-7.51-10.936-15.826-20.437-17.763-31.248-.818-4.57-.897-9.169 3.111-11.482 4.008-2.314 7.617.456 11.403 3.104 3.63 2.539 6.713 9.172 6.713 9.172s4.762-6.03 9.094-7.707c4.311-1.67 9.256-2.825 11.813-.424z" fill="#E09884"/><path d="M182.188 243s-7.173 17.931 0 20.587c2.511.929 6.812 0 6.812 0M156.493 243s7.891 17.931 0 20.587c-2.762.929-7.493 0-7.493 0M314 144c32.938-4.1 21.25-41 51-41" stroke="#fff"/><path d="M214.032 3.242c45.84-.644 89.466 11.783 103.494 55.513 28.226 87.984-39.725 175.967-128.583 184.346-79.37 7.485-160.048-31.971-171.445-111.026C11.239 88.643 15.03 52.06 48.86 24.19 74.253 3.272 98.095-2.854 130.401 3.242c14.708 0 31.382 1.211 45.997 3.347l37.634-3.347z" fill="#F9F2CE"/><path d="M214.032 3.242c45.84-.644 89.466 11.783 103.494 55.513 28.226 87.984-39.725 175.967-128.583 184.346-79.37 7.485-160.048-31.971-171.445-111.026C11.239 88.643 15.03 52.06 48.86 24.19 74.253 3.272 98.095-2.854 130.401 3.242m0 0c-5.227 1.047-11.663 1.602-9.409 8.38 4.182 12.568 33.966 7.852 52.27 9.426 18.304 1.574 33.453 13.616 40.77 2.095 4.535-7.14-12.132-16.421-35.951-19.901-14.615-2.136-32.972 0-47.68 0z" stroke="#070320"/><ellipse cx="161" cy="117" rx="3" ry="4" fill="#070320"/><ellipse cx="177.5" cy="117" rx="3.5" ry="4" fill="#070320"/><path d="M139 127c20.484 8.064 35.638 11.59 64 3.103" stroke="#070320"/><path d="M16 100c-13.651 2.848-16.605 8.924-14.284 27" stroke="#fff"/></svg>