<svg width="150" height="128" fill="none" xmlns="http://www.w3.org/2000/svg"><path d="M80.594 117s-3.587 8.539 0 9.803c1.256.443 3.406 0 3.406 0M68.406 117s3.587 8.539 0 9.803c-1.256.443-3.406 0-3.406 0" stroke="#070320"/><path d="M96.33 2.07c21.955-.307 42.85 5.625 49.569 26.5 13.519 42-19.027 84.001-61.587 88.001-38.015 3.573-76.657-15.262-82.115-53-3-20.733-1.183-38.197 15.02-51.5C29.38 2.083 40.8-.84 56.274 2.07c7.045 0 15.03.578 22.03 1.597L96.33 2.07z" fill="#F9F2CE"/><path d="M96.33 2.07c21.955-.307 42.85 5.625 49.569 26.5 13.519 42-19.027 84.001-61.587 88.001-38.015 3.573-76.657-15.262-82.115-53-3-20.733-1.183-38.197 15.02-51.5C29.38 2.083 40.8-.84 56.274 2.07m0 0c-2.504.5-5.586.764-4.507 4 2.003 6 16.269 3.748 25.036 4.5 8.767.75 16.023 6.5 19.527 1 2.172-3.41-5.81-7.84-17.219-9.5-7-1.02-15.792 0-22.837 0z" stroke="#070320"/><ellipse cx="70.5" cy="57" rx="1.5" ry="2" fill="#070320"/><ellipse cx="78.5" cy="57" rx="1.5" ry="2" fill="#070320"/><path d="M60 61c9.967 2.344 17.28 4.379 31 1.798m-64.5 10.84c-3.045 5.761-1.69 8.697 5.673 13.462M113.5 73.638c3.045 5.761 1.69 8.697-5.673 13.462" stroke="#070320"/><path d="M104 66L74 76.5l2.5 34.5 27.5-6V66z" fill="#fff"/><path d="M45 70l5 36.5 26.5 4.5L74 76.5 45 70z" fill="#fff"/><path d="M74 76.5L45 70l5 36.5 26.5 4.5M74 76.5L104 66v39l-27.5 6M74 76.5l2.5 34.5M82 83.5L96 79M83.5 91L96 87.5m-10.5 13l10.5-3M67 85l-14-4.5m14 12L54.5 89M68 102l-10.5-3" stroke="#070320"/></svg>