<svg width="81" height="96" viewBox="0 0 81 96" fill="none" xmlns="http://www.w3.org/2000/svg">
<path d="M45 1L39 25" stroke="#E09884" stroke-width="3"/>
<path d="M7 4L19 22" stroke="#E09884" stroke-width="3"/>
<path d="M79 19L67 30" stroke="#E09884" stroke-width="3"/>
<path fill-rule="evenodd" clip-rule="evenodd" d="M64.4662 40.6393C68.9642 44.8407 68.0114 51.3968 65.0072 56.3998C55.2845 72.5914 45.7447 78.9237 32.0291 91.7636C22.0024 77.2551 10.9039 64.6475 8.3075 50.3109C7.2101 44.2514 7.0997 38.1536 12.4396 35.0916C17.7795 32.0297 22.5939 35.7067 27.6449 39.2226C32.4877 42.5934 36.6064 51.392 36.6064 51.392C36.6064 51.392 42.9461 43.4027 48.7187 41.1855C54.4642 38.9788 61.0542 37.4522 64.4662 40.6393Z" fill="#E09884"/>
</svg>
