<svg width="61" height="89" viewBox="0 0 61 89" fill="none" xmlns="http://www.w3.org/2000/svg">
<path d="M8.63357 15.1879C13.6847 36.0928 12.2773 44.8861 7.12778 71.7921C6.76682 73.6781 9.00926 74.9502 10.4318 73.6604L35.9145 50.555L53.5083 76.6879C54.531 78.2069 56.8803 77.6494 57.1131 75.833C60.8041 47.0346 58.4958 34.7126 55.1841 14.5898C54.561 10.8043 52.0234 7.58767 48.4805 6.11602C33.4897 -0.110672 28.9727 -1.7586 15.863 1.98478C10.2686 3.58223 7.26711 9.5326 8.63357 15.1879Z" fill="#E8E6FF"/>
<path d="M3.49677 22.1446C7.93673 42.8564 6.68856 59.011 2.11826 84.0326C1.77163 85.9304 4.04435 87.1916 5.46231 85.8835L34.2384 59.3376L52.9928 85.8925C54.0365 87.3703 56.344 86.8028 56.5798 85.009C60.098 58.2418 59.4738 42.2222 56.6715 18.4623C56.2072 14.5254 53.6415 11.104 49.8963 9.80451C35.2807 4.73312 24.8062 5.02424 10.8802 8.94994C5.27784 10.5292 2.27671 16.4532 3.49677 22.1446Z" stroke="#5D84CB" stroke-width="3"/>
</svg>
