<svg width="150" height="128" viewBox="0 0 150 128" fill="none" xmlns="http://www.w3.org/2000/svg">
<path d="M80.5942 117C80.5942 117 77.0073 125.539 80.5942 126.803C81.8495 127.246 84 126.803 84 126.803" stroke="#070320"/>
<path d="M68.4058 117C68.4058 117 71.9927 125.539 68.4058 126.803C67.1505 127.246 65 126.803 65 126.803" stroke="#070320"/>
<path d="M96.3294 2.07014C118.285 1.76291 139.18 7.69521 145.899 28.5703C159.418 70.5707 126.872 112.571 84.3125 116.571C46.297 120.144 7.65531 101.309 2.19671 63.5706C-0.802146 42.8379 1.01436 25.3742 17.2179 12.0702C29.3801 2.08439 40.7996 -0.839569 56.273 2.07014C63.3178 2.07014 71.3039 2.64856 78.3039 3.66793L96.3294 2.07014Z" fill="#F9F2CE"/>
<path d="M96.3294 2.07014C118.285 1.76291 139.18 7.69521 145.899 28.5703C159.418 70.5707 126.872 112.571 84.3125 116.571C46.297 120.144 7.65531 101.309 2.19671 63.5706C-0.802146 42.8379 1.01436 25.3742 17.2179 12.0702C29.3801 2.08439 40.7996 -0.839569 56.273 2.07014M56.273 2.07014C53.7694 2.5702 50.6866 2.8351 51.7665 6.07023C53.7694 12.0702 68.0349 9.81884 76.8019 10.5702C85.5689 11.3216 92.8246 17.0703 96.3294 11.5703C98.5015 8.16171 90.5184 3.73144 79.1101 2.07014C72.1101 1.05077 63.3178 2.07014 56.273 2.07014Z" stroke="#070320"/>
<ellipse cx="70.5" cy="57" rx="1.5" ry="2" fill="#070320"/>
<ellipse cx="78.5" cy="57" rx="1.5" ry="2" fill="#070320"/>
<path d="M60 61C69.9666 63.3439 77.2792 65.379 91 62.7983" stroke="#070320"/>
<path d="M26.4995 73.6377C23.455 79.3993 24.81 82.3355 32.1735 87.1001" stroke="#070320"/>
<path d="M113.5 73.6377C116.545 79.3993 115.19 82.3355 107.827 87.1001" stroke="#070320"/>
<path d="M104 66L74 76.5L76.5 111L104 105V66Z" fill="white"/>
<path d="M45 70L50 106.5L76.5 111L74 76.5L45 70Z" fill="white"/>
<path d="M74 76.5L45 70L50 106.5L76.5 111M74 76.5L104 66V105L76.5 111M74 76.5L76.5 111M82 83.5L96 79M83.5 91L96 87.5M85.5 100.5L96 97.5M67 85L53 80.5M67 92.5L54.5 89M68 102L57.5 99" stroke="#070320"/>
</svg>
